<?xml version="1.0" standalone="no"?>
<!DOCTYPE svg PUBLIC "-//W3C//DTD SVG 20010904//EN"
 "http://www.w3.org/TR/2001/REC-SVG-20010904/DTD/svg10.dtd">
<svg version="1.0" xmlns="http://www.w3.org/2000/svg"
 width="200.000000pt" height="200.000000pt" viewBox="0 0 200.000000 200.000000"
 preserveAspectRatio="xMidYMid meet">
<metadata>
Created by potrace 1.11, written by Peter Selinger 2001-2013
</metadata>
<g transform="translate(0.000000,200.000000) scale(0.100000,-0.100000)"
fill="#000000" stroke="none">
<path d="M470 1915 c-205 -145 -361 -369 -409 -588 -6 -23 -13 -55 -17 -72 -3
-16 -9 -81 -11 -144 -15 -348 136 -662 422 -876 120 -89 301 -164 445 -184 61
-8 274 -8 330 1 261 41 524 208 679 433 28 40 51 75 51 78 0 2 -26 -9 -59 -24
-278 -132 -611 -130 -892 7 -194 95 -369 265 -464 454 -75 149 -106 273 -111
445 -5 174 24 318 92 463 14 30 24 55 22 57 -2 2 -37 -21 -78 -50z"/>
<path d="M993 1876 c-25 -51 -29 -55 -72 -61 -88 -12 -88 -12 -37 -59 l46 -43
-10 -53 c-16 -83 -16 -82 46 -49 l55 31 60 -31 59 -30 -5 47 c-4 26 -9 55 -11
64 -3 11 11 33 41 62 52 49 52 49 -37 61 -45 7 -47 9 -70 61 -13 29 -26 54
-31 54 -4 0 -19 -24 -34 -54z"/>
<path d="M1605 1675 c-22 -47 -46 -86 -52 -86 -7 -1 -16 -2 -20 -3 -5 -1 -33
-6 -63 -10 -101 -14 -100 -11 -26 -85 l66 -66 -10 -60 c-6 -33 -13 -74 -15
-92 l-5 -32 84 45 83 44 85 -45 85 -45 -9 48 c-5 26 -13 68 -17 94 l-8 47 63
62 c35 34 61 66 59 70 -4 6 -111 22 -155 24 -8 0 -22 14 -31 30 -8 17 -28 56
-45 88 l-29 57 -40 -85z"/>
<path d="M1120 1177 c-12 -26 -25 -47 -29 -47 -18 -1 -86 -12 -89 -15 -1 -1
13 -18 32 -37 32 -32 34 -36 26 -79 -5 -24 -6 -46 -4 -48 2 -3 22 5 44 18 l39
22 40 -21 c22 -11 43 -20 46 -20 3 0 3 21 0 48 -6 43 -3 50 25 80 18 18 30 35
28 37 -2 2 -23 6 -47 9 -23 2 -44 6 -45 8 -1 2 -11 23 -23 47 l-21 44 -22 -46z"/>
</g>
</svg>
